<?xml version="1.0" encoding="UTF-8"?>
<svg version="1.1" xmlns="http://www.w3.org/2000/svg" width="2000" height="2000">
<path d="M0 0 C1.17113799 0.00138269 1.17113799 0.00138269 2.36593533 0.00279331 C3.70584782 0.00073132 3.70584782 0.00073132 5.07282925 -0.00137234 C6.55420376 0.00402058 6.55420376 0.00402058 8.06550503 0.00952244 C9.09952953 0.00937641 10.13355404 0.00923038 11.19891262 0.00907993 C14.63485175 0.00977956 18.07073742 0.01757425 21.50666714 0.02539158 C23.88178382 0.02725558 26.25690089 0.02867957 28.63201809 0.0296793 C34.89727233 0.03350586 41.16250356 0.04333732 47.42774868 0.05438328 C53.81537979 0.06459443 60.2030146 0.06917628 66.59065151 0.0742197 C79.13428115 0.08495947 91.6778948 0.10184656 104.22151089 0.12304783 C102.53206265 3.63831023 100.50825661 6.48250625 98.09651089 9.56054783 C97.19485435 10.71892366 96.29386062 11.87781558 95.39338589 13.03711033 C94.64218472 14.00245701 94.64218472 14.00245701 93.87580776 14.98730564 C90.67576877 19.11864288 87.51271771 23.27826206 84.34651089 27.43554783 C83.30792934 28.79861057 83.30792934 28.79861057 82.24836636 30.18920994 C78.21773199 35.48444048 74.20665611 40.79351626 70.22151089 46.12304783 C62.27014957 56.75653444 54.19577109 67.29654279 46.13947964 77.85058689 C38.98885942 87.21978466 31.84854113 96.59503282 24.79206753 106.03540134 C20.0274661 112.40124091 15.19958492 118.71835003 10.37409878 125.03808689 C4.99433533 132.09111169 -0.33815251 139.1785539 -5.64299107 146.28808689 C-9.62489316 151.61673458 -13.67660882 156.88620768 -17.77848911 162.12304783 C-12.74415714 173.56350064 -7.49180579 184.88092481 -2.02848911 196.12304783 C2.53767316 205.52181241 7.03139523 214.94689401 11.40901089 224.43554783 C16.70572641 235.91080511 22.10235169 247.33610837 27.53401089 258.74804783 C33.4770452 271.2357806 39.4036053 283.7306911 45.28401089 296.24804783 C50.90741718 308.21707132 56.55594388 320.17392328 62.22151089 332.12304783 C67.94645259 344.1985979 73.65874791 356.27993803 79.34651089 368.37304783 C79.67363064 369.06853733 80.00075039 369.76402683 80.33778286 370.48059177 C82.95965871 376.05549376 85.58024173 381.63100321 88.20075893 387.20654392 C90.49872746 392.09566808 92.79722822 396.98454154 95.09651089 401.87304783 C95.42346951 402.56821507 95.75042812 403.2633823 96.08729458 403.97961521 C101.4456553 415.37012082 106.82915883 426.7486002 112.22151089 438.12304783 C117.94627816 450.19868104 123.65874761 462.27993738 129.34651089 474.37304783 C129.67363064 475.06853733 130.00075039 475.76402683 130.33778286 476.48059177 C132.95965871 482.05549376 135.58024173 487.63100321 138.20075893 493.20654392 C145.77006203 509.31088228 153.34941777 525.41031012 160.96815395 541.49133396 C162.09047431 543.86030593 163.21239805 546.22946545 164.33430386 548.59863377 C167.88680516 556.09851943 171.44479374 563.59572016 175.015975 571.08673191 C176.68475347 574.58810512 178.35098753 578.09068622 180.01698208 581.59338474 C180.8126972 583.2644873 181.609671 584.93499117 182.40797329 586.60485935 C183.51561706 588.92194528 184.61899236 591.24101982 185.72151089 593.56054783 C186.04773434 594.24006504 186.37395779 594.91958225 186.7100668 595.6196909 C188.49524794 599.38762171 189.99011778 603.13949111 191.22151089 607.12304783 C193.91952471 604.74368549 195.21516657 602.37523743 196.69026089 599.11132908 C197.16874477 598.06477146 197.64722866 597.01821384 198.14021206 595.93994236 C198.66204067 594.78349216 199.18386929 593.62704197 199.72151089 592.43554783 C200.8908063 589.87516979 202.06588222 587.31745731 203.24104214 584.75976658 C203.55511517 584.07483128 203.86918819 583.38989597 204.19277859 582.68420506 C208.18261987 573.99996164 212.29950224 565.37611175 216.40901089 556.74804783 C217.22330898 555.03674583 218.03751735 553.32540113 218.85163784 551.61401463 C220.08468866 549.02208586 221.31781029 546.43019104 222.55126858 543.83845615 C226.84649549 534.8127324 231.12997292 525.78145638 235.40901089 516.74804783 C235.96638439 515.57142582 235.96638439 515.57142582 236.53501797 514.37103367 C244.46109194 497.63607949 252.34504844 480.881395 260.22151089 464.12304783 C262.84583916 458.53939849 265.47061752 452.95596132 268.09651089 447.37304783 C268.42346951 446.67788059 268.75042812 445.98271336 269.08729458 445.26648045 C274.82487513 433.06985037 280.59206257 420.88736108 286.36646938 408.70813084 C291.6698522 397.52169246 296.95549125 386.32712152 302.22151089 375.12304783 C308.24560263 362.30608694 314.29976375 349.50361255 320.3670187 336.7070322 C325.67021413 325.52095816 330.95566544 314.32675091 336.22151089 303.12304783 C341.86647992 291.11271492 347.53615144 279.11431279 353.22151089 267.12304783 C359.58112399 253.70923786 365.92023882 240.28602952 372.2329855 226.85009861 C375.72728881 219.41438185 379.23240145 211.98396819 382.75276089 204.56054783 C383.5170435 202.9474488 384.28128529 201.33433043 385.0454855 199.72119236 C386.14379564 197.40279756 387.24278071 195.08474117 388.34458828 192.76800632 C393.16430583 182.63346605 397.78147177 172.4297559 402.22151089 162.12304783 C401.87072475 161.6772739 401.51993862 161.23149998 401.15852261 160.77221775 C394.38365802 152.14836598 387.69220983 143.47807566 381.22151089 134.62304783 C375.97602491 127.44656779 370.59368575 120.39396642 365.11555386 113.39379978 C361.26453439 108.4718477 357.48196439 103.50638018 353.74885464 98.49414158 C350.33750447 93.92708032 346.86784886 89.40416583 343.40901089 84.87304783 C338.65422963 78.64194381 333.91409944 72.40113432 329.22151089 66.12304783 C322.64334443 57.3255785 315.97706649 48.59573526 309.3123312 39.86377048 C307.20485413 37.10121355 305.09953318 34.33702742 302.99494839 31.57226658 C302.30505825 30.66613621 301.61516811 29.76000584 300.90437222 28.82641697 C299.54705748 27.04334115 298.19011554 25.25998149 296.83357143 23.47631931 C293.916512 19.64418983 290.99295017 15.81836576 288.03010464 12.02148533 C287.55943569 11.41691502 287.08876675 10.8123447 286.60383511 10.18945408 C285.38750552 8.63068024 284.16607076 7.07589361 282.94416714 5.52148533 C281.22151089 3.12304783 281.22151089 3.12304783 280.22151089 0.12304783 C293.90379478 -0.06246753 307.58577857 -0.204539 321.2690649 -0.29144955 C327.62313221 -0.33316679 333.9763379 -0.3897346 340.32990932 -0.4804678 C346.46375884 -0.56751314 352.59678065 -0.61525236 358.73120022 -0.63597012 C361.06923355 -0.65073041 363.40722252 -0.67955503 365.74490261 -0.72279263 C369.02520329 -0.78104141 372.30210279 -0.78885812 375.58283901 -0.7851553 C376.54525509 -0.8139175 377.50767117 -0.84267971 378.49925137 -0.8723135 C383.97339876 -0.80563826 386.73532026 0.05027515 390.68330288 3.94934177 C391.88849267 5.31829905 393.06940236 6.70912689 394.22151089 8.12304783 C395.30268064 9.354118 396.38568031 10.58358664 397.47151089 11.81054783 C398.03612026 12.46668064 398.60072964 13.12281345 399.18244839 13.79882908 C401.76904433 16.74715205 404.42987803 19.62219389 407.09651089 22.49804783 C411.41918636 27.16228618 415.69967893 31.8599912 419.94416714 36.59570408 C422.51960899 39.45387025 425.11840785 42.290114 427.72151089 45.12304783 C433.32458525 51.22287961 438.86364054 57.37866004 444.39338589 63.54492283 C448.9438646 68.61176792 453.52757056 73.64667271 458.13508511 78.66162205 C461.75379564 82.60367984 465.33496791 86.5780428 468.90901089 90.56054783 C471.49766092 93.42905192 474.10736235 96.27781433 476.72151089 99.12304783 C480.81068537 103.5736963 484.86520172 108.05382865 488.90119839 112.55273533 C491.53230872 115.4673323 494.18803564 118.35844007 496.84651089 121.24804783 C499.82373729 124.48517874 502.78104055 127.73442639 505.65901089 131.06054783 C508.73369294 134.60712353 511.90836727 138.05390015 515.09651089 141.49804783 C515.60907436 142.0547617 516.12163784 142.61147556 516.64973354 143.18505955 C519.08532586 145.82855889 521.53322346 148.45524678 524.03010464 151.04101658 C524.8563937 151.91371189 525.68268276 152.7864072 526.53401089 153.68554783 C527.2726437 154.44996189 528.01127651 155.21437595 528.77229214 156.00195408 C530.22151089 158.12304783 530.22151089 158.12304783 529.97444057 160.01757908 C529.14251179 162.34395841 528.10224531 163.95391209 526.62385464 165.93164158 C525.80497768 167.03572361 525.80497768 167.03572361 524.96955776 168.16211033 C524.37207729 168.9535947 523.77459682 169.74507908 523.15901089 170.56054783 C522.2260519 171.81158298 522.2260519 171.81158298 521.27424526 173.08789158 C515.96247741 180.19139008 510.57632015 187.23889922 505.1861105 194.28295994 C500.80273743 200.01888049 496.48716971 205.79915747 492.22151089 211.62304783 C486.63488668 219.250448 480.9287475 226.77949348 475.18244839 234.28711033 C470.80086763 240.0220751 466.48608131 245.80064346 462.22151089 251.62304783 C456.63488668 259.250448 450.9287475 266.77949348 445.18244839 274.28711033 C440.80086763 280.0220751 436.48608131 285.80064346 432.22151089 291.62304783 C426.63488668 299.250448 420.9287475 306.77949348 415.18244839 314.28711033 C410.80086763 320.0220751 406.48608131 325.80064346 402.22151089 331.62304783 C396.63488668 339.250448 390.9287475 346.77949348 385.18244839 354.28711033 C380.80086763 360.0220751 376.48608131 365.80064346 372.22151089 371.62304783 C366.63488668 379.250448 360.9287475 386.77949348 355.18244839 394.28711033 C350.80086763 400.0220751 346.48608131 405.80064346 342.22151089 411.62304783 C336.63488668 419.250448 330.9287475 426.77949348 325.18244839 434.28711033 C320.80086763 440.0220751 316.48608131 445.80064346 312.22151089 451.62304783 C306.63488668 459.250448 300.9287475 466.77949348 295.18244839 474.28711033 C290.80086763 480.0220751 286.48608131 485.80064346 282.22151089 491.62304783 C276.63488668 499.250448 270.9287475 506.77949348 265.18244839 514.28711033 C260.80086624 520.02207693 256.48616019 525.80069976 252.22151089 531.62304783 C246.58708896 539.31375163 240.84033749 546.91274699 235.05061245 554.4870615 C229.54241447 561.69364283 224.08772525 568.93851346 218.65705776 576.20361423 C216.18212785 579.51278073 213.70146624 582.8176469 211.22151089 586.12304783 C210.23710981 587.43552827 209.25273488 588.74802832 208.26838589 590.06054783 C203.25276089 596.74804783 198.23713589 603.43554783 193.22151089 610.12304783 C189.03883003 608.58751409 187.42626077 605.92829984 184.97151089 602.31054783 C180.64181052 596.04907118 176.10818293 589.97285815 171.47151089 583.93554783 C166.3196916 577.21318448 161.22465937 570.45680902 156.22151089 563.62304783 C151.29601935 556.89796565 146.28802381 550.24251491 141.22151089 543.62304783 C135.56797694 536.23662991 130.00680895 528.79110317 124.51057339 521.28711033 C120.14874056 515.3463335 115.7009654 509.47551522 111.22151089 503.62304783 C105.56797694 496.23662991 100.00680895 488.79110317 94.51057339 481.28711033 C89.48842148 474.44698488 84.34539426 467.70313789 79.18684292 460.96557713 C74.75727978 455.1692416 70.40321894 449.32360629 66.09651089 443.43554783 C60.92698043 436.36822073 55.60392778 429.43935338 50.19856167 422.55127048 C46.24441283 417.49259831 42.45872453 412.34339614 38.76301479 407.09399509 C35.65445378 402.69009403 32.41109532 398.40867022 29.10676479 394.15039158 C25.81143864 389.90132322 22.56862539 385.6153761 19.34651089 381.31054783 C18.84393764 380.6391074 18.3413644 379.96766697 17.82356167 379.27587986 C16.80008207 377.90786904 15.77680824 376.53970425 14.75373745 375.17138767 C12.2463547 371.81942124 9.73370429 368.47140937 7.22151089 365.12304783 C6.2175786 363.78452569 5.21367234 362.44598403 4.20979214 361.10742283 C3.71430874 360.4467783 3.21882534 359.78613377 2.70832729 359.1054697 C-14.55192661 336.09179783 -14.55192661 336.09179783 -16.50358677 333.48950291 C-17.81044872 331.7470745 -19.11741465 330.00472406 -20.42448521 328.26245213 C-23.00840097 324.81800546 -25.59163793 321.37309868 -28.16911411 317.92382908 C-31.55288901 313.39706152 -34.95560625 308.88658267 -38.38786411 304.39648533 C-45.50456462 295.08602566 -52.5634401 285.74300836 -59.48820591 276.28881931 C-63.85039766 270.34743649 -68.29860884 264.47607148 -72.77848911 258.62304783 C-78.43202306 251.23662991 -83.99319105 243.79110317 -89.48942661 236.28711033 C-93.85125944 230.3463335 -98.2990346 224.47551522 -102.77848911 218.62304783 C-108.4253362 211.24536639 -113.98088685 203.80932146 -119.46965122 196.31347752 C-124.67726622 189.2194116 -130.00570298 182.22019855 -135.36247349 175.2382822 C-136.60879167 173.61160241 -137.85075787 171.98157553 -139.08757114 170.3476572 C-140.17227995 168.92059011 -141.27111516 167.50408824 -142.38737583 166.10156345 C-143.80583286 164.26367283 -143.80583286 164.26367283 -145.77848911 161.12304783 C-145.30296645 157.69320561 -144.17340757 156.20086488 -141.65348911 153.87304783 C-139.15282262 151.47868497 -136.78720283 149.05980217 -134.52848911 146.43554783 C-131.54881924 142.98153589 -128.49256009 139.60409521 -125.40348911 136.24804783 C-122.00798338 132.55765709 -118.62733728 128.85599328 -115.27848911 125.12304783 C-111.50311694 120.91620455 -107.68868463 116.7462993 -103.86442661 112.58398533 C-100.98426305 109.44637697 -98.12317298 106.29283842 -95.27848911 103.12304783 C-91.9684719 99.43474293 -88.63134411 95.77239018 -85.27848911 92.12304783 C-79.68667159 86.03538504 -74.1552744 79.89492316 -68.64177036 73.73632908 C-63.88238461 68.43008392 -59.06846493 63.17812715 -54.22721958 57.9467783 C-49.69752296 53.04719258 -45.22918792 48.09448654 -40.77848911 43.12304783 C-35.50958273 37.24655585 -30.20842763 31.40158796 -24.86930943 25.58886814 C-20.47164515 20.79729132 -16.121152 15.96442641 -11.77848911 11.12304783 C-10.11223926 9.26850658 -8.44558061 7.41433254 -6.77848911 5.56054783 C-5.66473911 4.32111423 -5.66473911 4.32111423 -4.52848911 3.05664158 C-1.87978127 0.1300559 -1.87978127 0.1300559 0 0 Z " fill="#00B5E2" transform="translate(809.778489112854,553.8769521713257)"/>
<path d="M0 0 C3.55545099 1.18515033 3.98752846 2.05043322 6.01171875 5.1015625 C6.88908691 6.40843018 6.88908691 6.40843018 7.78417969 7.74169922 C8.41227539 8.69318848 9.04037109 9.64467773 9.6875 10.625 C11.0392531 12.64137057 12.39215523 14.65697123 13.74609375 16.671875 C14.44589355 17.71666016 15.14569336 18.76144531 15.86669922 19.83789062 C19.2737324 24.88800435 22.76088246 29.88140442 26.25 34.875 C32.97750828 44.52270816 39.65816573 54.20116186 46.3046875 63.90478516 C51.82759431 71.9665134 57.38889591 79.99934738 63 88 C69.05304919 96.63080476 75.04284933 105.30282756 81 114 C87.98028746 124.18579294 95.00943219 134.33644351 102.06787109 144.46826172 C106.61841753 151.00347016 111.14681809 157.55320277 115.63867188 164.12890625 C117.2974751 166.55229342 118.91561695 168.90389215 120.85546875 171.11328125 C122 173 122 173 121.74975586 175.26611328 C120.90448552 178.34828106 119.67769631 180.82184081 118.1484375 183.62890625 C117.55216553 184.73186035 116.95589355 185.83481445 116.34155273 186.97119141 C115.68609458 188.16832681 115.03057531 189.36542875 114.375 190.5625 C113.69600537 191.81391591 113.01771323 193.0657132 112.34008789 194.31787109 C110.93108197 196.92025735 109.51906266 199.52097434 108.10498047 202.12060547 C104.85269122 208.10610837 101.64818546 214.11710726 98.4375 220.125 C93.06329311 230.16201902 87.67061746 240.18898265 82.26928711 250.21142578 C78.00076192 258.13448968 73.74738353 266.06558604 69.5 274 C61.22035165 289.46612584 52.90220627 304.9114214 44.57421875 320.3515625 C38.65624137 331.3278196 32.7605903 342.31536908 26.90093994 353.32284546 C21.72301768 363.04920077 16.52630753 372.76399411 11.25 382.4375 C10.77288574 383.31245117 10.29577148 384.18740234 9.80419922 385.08886719 C7.2515748 389.75499451 4.65484002 394.39124736 2 399 C1.34 399 0.68 399 0 399 C-0.39155273 398.26700684 -0.78310547 397.53401367 -1.18652344 396.77880859 C-10.9649235 378.47884375 -10.9649235 378.47884375 -20.875 360.25 C-26.1856313 350.55857554 -31.36926743 340.80180828 -36.54382324 331.03735352 C-41.71155109 321.28720402 -46.92318528 311.56290819 -52.19165039 301.86669922 C-56.27875834 294.34165325 -60.33393169 286.79985969 -64.375 279.25 C-64.68776886 278.66571228 -65.00053772 278.08142456 -65.32278442 277.47943115 C-66.91169732 274.51090548 -68.50017818 271.54214893 -70.08837891 268.57324219 C-79.77507611 250.46561412 -89.48381437 232.37001737 -99.2265625 214.29248047 C-101.09017599 210.83258351 -102.95158052 207.37150251 -104.8125 203.91015625 C-105.44651367 202.73127205 -106.08054669 201.55239825 -106.71459961 200.37353516 C-107.90858513 198.1534067 -109.10213775 195.93304535 -110.29516602 193.71240234 C-110.83842529 192.70258301 -111.38168457 191.69276367 -111.94140625 190.65234375 C-112.45461426 189.69312012 -112.96782227 188.73389648 -113.49658203 187.74560547 C-114.48201855 185.94595963 -115.49787048 184.16256519 -116.54638672 182.39892578 C-117.01447754 181.60856934 -117.48256836 180.81821289 -117.96484375 180.00390625 C-118.59120728 178.9821228 -118.59120728 178.9821228 -119.23022461 177.93969727 C-120.22323228 175.4374943 -120.00155985 174.48425829 -119 172 C-117.99017352 170.34182499 -116.91064041 168.72535112 -115.7890625 167.140625 C-115.12712891 166.19832031 -114.46519531 165.25601563 -113.78320312 164.28515625 C-113.07099609 163.28355469 -112.35878906 162.28195312 -111.625 161.25 C-110.14808266 159.15129133 -108.67152091 157.05233238 -107.1953125 154.953125 C-106.4724707 153.92896484 -105.74962891 152.90480469 -105.00488281 151.84960938 C-102.47419447 148.2526544 -99.98145315 144.63100658 -97.5 141 C-93.07352499 134.54021862 -88.60213634 128.11224863 -84.125 121.6875 C-79.17562018 114.58447112 -74.25185367 107.4655192 -69.375 100.3125 C-64.33904924 92.92695859 -59.23106885 85.59444907 -54.09594727 78.27758789 C-48.67830467 70.55398599 -43.33124458 62.78337765 -38 55 C-31.02177921 44.81722279 -23.99398726 34.67009518 -16.9387207 24.54052734 C-11.25947743 16.38288277 -5.61756215 8.20021255 0 0 Z " fill="#00A8E2" transform="translate(1001,554)"/>
<path d="M0 0 C17.82 0 35.64 0 54 0 C63.5065043 27.09353724 72.85015916 54.2342423 82.03222656 81.4387207 C85.66591155 92.20085336 89.30406584 102.96122108 93.03125 113.69140625 C93.32028198 114.52929184 93.60931396 115.36717743 93.90710449 116.23045349 C94.95980945 119.89635347 94.95980945 119.89635347 97 123 C97.28655457 122.05930161 97.57310913 121.11860321 97.86834717 120.1493988 C100.63067676 111.08151198 103.39360012 102.01380623 106.15703964 92.94625759 C107.57616145 88.2896955 108.99510596 83.63307958 110.41357422 78.97631836 C114.27012684 66.31583722 118.13100684 53.6566854 122 41 C122.28549713 40.06604652 122.57099426 39.13209305 122.86514282 38.16983795 C124.56242616 32.61902322 126.26216444 27.06896884 127.96509552 21.51988411 C128.49549153 19.79079195 129.02529945 18.06151927 129.55449677 16.33205986 C130.28234989 13.95400103 131.01243883 11.57664049 131.74316406 9.19946289 C132.06600246 8.14235076 132.06600246 8.14235076 132.39536285 7.06388283 C133.88566914 2.22866172 133.88566914 2.22866172 135 0 C152.49 0 169.98 0 188 0 C212.11222337 78.23207925 212.11222337 78.23207925 219.18447876 101.50595093 C219.72599091 103.28651938 220.26892812 105.06665509 220.81332397 106.84634399 C221.54630043 109.24400199 222.27403209 111.64318106 223 114.04296875 C223.20816849 114.72044159 223.41633698 115.39791443 223.6308136 116.09591675 C224.45957822 118.85610297 225 121.09676396 225 124 C225.66 124 226.32 124 227 124 C227.26466064 122.71399902 227.52932129 121.42799805 227.80200195 120.10302734 C228.92627587 115.05759836 230.48106674 110.23318589 232.16796875 105.3515625 C232.47962479 104.43756683 232.79128082 103.52357117 233.11238098 102.58187866 C234.13258356 99.59457223 235.15985649 96.60975408 236.1875 93.625 C236.9045707 91.53134376 237.62136356 89.43759235 238.33789062 87.34375 C244.67357187 68.85449839 251.10456853 50.39833968 257.56712341 31.95310974 C259.2795843 27.064022 260.98396391 22.17226299 262.6796875 17.27734375 C263.05996094 16.17970703 263.44023438 15.08207031 263.83203125 13.95117188 C264.49973196 12.02184193 265.16648805 10.09218464 265.83203125 8.16210938 C267.890625 2.21875 267.890625 2.21875 269 0 C287.15 0 305.3 0 324 0 C315.87040581 24.58951329 307.49549068 49.07433925 298.92333984 73.51220703 C296.08341331 81.61105708 293.25947011 89.71548081 290.43447876 97.81954956 C288.87365579 102.29660008 287.31177376 106.77328109 285.75 111.25 C285.12499494 113.0416649 284.49999494 114.83333157 283.875 116.625 C280.12500001 127.37499998 280.12500001 127.37499998 279.18765259 130.06204224 C278.56212709 131.8552289 277.93661849 133.64842145 277.31112671 135.44161987 C275.75680467 139.8975789 274.20219725 144.35343793 272.64697266 148.80908203 C269.73667863 157.14790476 266.82923979 165.48769131 263.93145752 173.83087158 C262.573791 177.73926661 261.21456477 181.64711843 259.85522461 185.55493164 C259.21235803 187.40443397 258.57024198 189.25419739 257.92895508 191.10424805 C257.03531398 193.68215933 256.13900226 196.25912886 255.2421875 198.8359375 C254.9875473 199.57278778 254.7329071 200.30963806 254.47055054 201.06881714 C252.12954288 207.78064084 249.55657725 214.35289916 247 221 C234.46 221 221.92 221 209 221 C207.19095488 216.17587968 205.45240897 211.45857502 203.89379883 206.56713867 C203.50464294 205.34911057 203.11548706 204.13108246 202.71453857 202.87614441 C202.29530573 201.55677277 201.8761386 200.23738026 201.45703125 198.91796875 C201.01172654 197.52101433 200.56626788 196.12410897 200.1206665 194.72724915 C198.92879532 190.98894181 197.7396434 187.24977473 196.5511055 183.51040649 C195.81070345 181.18184986 195.06943092 178.85357218 194.32785034 176.52539062 C187.21606443 154.19776353 180.15236886 131.85554814 173.1887207 109.48120117 C169.27747322 96.93520168 165.20522983 84.45058642 161 72 C160.74168396 72.83346199 160.74168396 72.83346199 160.47814941 73.6837616 C149.60132493 108.77551291 138.68930505 143.85616993 127.74955177 178.92835236 C126.74073259 182.16265805 125.73207746 185.39701491 124.72343063 188.63137436 C124.03331885 190.84400308 123.34291872 193.05654167 122.65249634 195.26907349 C122.43814627 195.95641319 122.2237962 196.6437529 122.00295067 197.35192108 C121.58870553 198.68007746 121.17412659 200.00812978 120.75918007 201.3360672 C119.77098043 204.50338111 118.793471 207.6735125 117.83587646 210.85018921 C117.4773761 212.03553253 117.11887573 213.22087585 116.74951172 214.44213867 C116.43505096 215.4920549 116.12059021 216.54197113 115.79660034 217.623703 C115 220 115 220 114 221 C111.1883662 221.08861992 108.40141745 221.11522355 105.58984375 221.09765625 C104.74780899 221.0962413 103.90577423 221.09482635 103.03822327 221.09336853 C100.33794665 221.08775263 97.63775172 221.07519748 94.9375 221.0625 C93.11132932 221.05748705 91.28515734 221.05292379 89.45898438 221.04882812 C84.97262458 221.03777804 80.48632616 221.02050279 76 221 C67.04719174 195.8741528 58.18128949 170.72106711 49.5 145.5 C43.29487307 127.4727695 37.00489997 109.47936496 30.60787964 91.51937866 C23.40755825 71.29037606 16.41930469 50.98962968 9.45968151 30.6768446 C8.79170122 28.727486 8.1232722 26.77828181 7.45472717 24.82911682 C6.63340059 22.43364625 5.81321813 20.03778298 4.99436951 17.64146423 C4.62828079 16.57360184 4.26219208 15.50573944 3.88500977 14.40551758 C3.56766373 13.47774002 3.25031769 12.54996246 2.9233551 11.59407043 C2.30080698 9.84508602 1.6183476 8.116438 0.88218689 6.41215515 C0 4 0 4 0 0 Z " fill="#00CCFF" transform="translate(636,1223)"/>
<path d="M0 0 C15.51 0 31.02 0 47 0 C62.79851251 20.31237323 62.79851251 20.31237323 68.5 28 C73.96555137 35.32962538 79.52706143 42.57592514 85.15673828 49.7800293 C88.99335614 54.69327692 92.76336776 59.64975507 96.48828125 64.6484375 C99.81508258 69.10181157 103.19191177 73.51724067 106.5625 77.9375 C107.59177612 79.28763184 107.59177612 79.28763184 108.6418457 80.66503906 C112.11371947 85.21807884 115.58758766 89.76959154 119.0625 94.3203125 C126.37546176 103.90210819 133.65684621 113.50561874 140.86547852 123.16625977 C144.84895713 128.49721529 148.91245369 133.74458331 153 139 C153.33 93.13 153.66 47.26 154 0 C170.5 0 187 0 204 0 C204 72.93 204 145.86 204 221 C187.17 221 170.34 221 153 221 C137.06733247 200.51514175 137.06733247 200.51514175 131.25 192.6875 C126.44765042 186.25660798 121.60932284 179.85987659 116.703125 173.5078125 C107.10421812 161.07051917 97.634422 148.53503827 88.22167969 135.95654297 C84.10205851 130.45607367 79.94027068 124.99255617 75.73828125 119.5546875 C72.05431358 114.7818554 68.403994 109.98328934 64.75 105.1875 C64.07590088 104.30328369 63.40180176 103.41906738 62.70727539 102.50805664 C62.05621826 101.65332764 61.40516113 100.79859863 60.734375 99.91796875 C60.15913086 99.16281982 59.58388672 98.4076709 58.99121094 97.62963867 C56.31522361 94.09566865 53.65968923 90.54625231 51 87 C50.67 131.22 50.34 175.44 50 221 C33.5 221 17 221 0 221 C0 148.07 0 75.14 0 0 Z " fill="#00CCFF" transform="translate(1207,1223)"/>
<path d="M0 0 C140.03220178 0 140.03220178 0 172.375 31.9375 C183.57735416 43.42783242 191.3017445 57.33643047 195.875 72.6875 C196.06594238 73.32695557 196.25688477 73.96641113 196.45361328 74.62524414 C199.59898855 86.00762437 200.36284817 97.42427059 200.3125 109.1875 C200.31067719 109.86531525 200.30885437 110.54313049 200.30697632 111.2414856 C200.25809271 122.06896579 199.68045721 132.4847625 197 143 C196.74259033 144.0202124 196.74259033 144.0202124 196.47998047 145.06103516 C192.53595363 160.10050122 185.84043616 172.89413969 176 185 C175.44828125 185.71671875 174.8965625 186.4334375 174.328125 187.171875 C156.05886018 209.78235126 125.47497468 217.56562817 98 221 C65.66 221 33.32 221 0 221 C0 148.07 0 75.14 0 0 Z M50 44 C50 87.89 50 131.78 50 177 C93.48734971 179.0637235 93.48734971 179.0637235 131 161 C131.91845703 160.21882813 131.91845703 160.21882813 132.85546875 159.421875 C144.10620645 149.18941599 149.27557205 133.71157984 150.12451172 118.81518555 C150.85967941 96.87202828 147.19429109 77.95154431 132.26953125 61.0390625 C110.69265497 39.98612803 77.01271943 44 50 44 Z " fill="#00CCFF" transform="translate(1465,1223)"/>
<path d="M0 0 C16.17 0 32.34 0 49 0 C57.73347833 19.69313741 66.35893538 39.42244587 74.82519531 59.23144531 C75.60087526 61.04623943 76.37659188 62.86101787 77.15234375 64.67578125 C77.54330231 65.59040131 77.93426086 66.50502136 78.33706665 67.44735718 C83.07251181 78.51829898 87.85043689 89.57088876 92.625 100.625 C101.08438421 120.21364511 109.50268055 139.81963349 117.89898682 159.43539429 C122.93737724 171.2059497 127.97940314 182.97470018 133.0703125 194.72265625 C133.4550473 195.6106189 133.8397821 196.49858154 134.23617554 197.41345215 C135.99860429 201.4792943 137.76373839 205.54393608 139.53271484 209.60693359 C140.13641081 210.99706268 140.74009036 212.38719889 141.34375 213.77734375 C141.86130859 214.96577881 142.37886719 216.15421387 142.91210938 217.37866211 C144 220 144 220 144 221 C126.18 221 108.36 221 90 221 C87.999375 216.565625 85.99875 212.13125 83.9375 207.5625 C83.32253662 206.20326416 82.70757324 204.84402832 82.07397461 203.44360352 C77.84064845 194.02871286 73.93603914 184.5589522 70 175 C24.46 174.505 24.46 174.505 -22 174 C-22.99 176.97 -23.98 179.94 -25 183 C-25.5799426 184.51242442 -26.17736168 186.01857357 -26.80932617 187.51000977 C-27.29604797 188.66563416 -27.29604797 188.66563416 -27.79260254 189.84460449 C-28.12272339 190.61904907 -28.45284424 191.39349365 -28.79296875 192.19140625 C-29.26023376 193.29832825 -29.26023376 193.29832825 -29.73693848 194.4276123 C-30.88341766 197.14081136 -32.03578898 199.85151764 -33.1875 202.5625 C-37.0546875 211.6890625 -37.0546875 211.6890625 -41 221 C-58.82 221 -76.64 221 -95 221 C-93.03071142 215.09213425 -91.03808073 209.51740572 -88.5078125 203.875 C-88.00128647 202.73069016 -88.00128647 202.73069016 -87.48452759 201.56326294 C-86.75265189 199.91013236 -86.01910755 198.2577397 -85.28405762 196.60601807 C-83.24926676 192.03100674 -81.22998351 187.44916454 -79.2109375 182.8671875 C-78.78502319 181.90094452 -78.35910889 180.93470154 -77.92028809 179.93917847 C-73.12141342 169.03345167 -68.43216034 158.08122234 -63.75 147.125 C-61.97027457 142.96214443 -60.19031161 138.79939049 -58.41015625 134.63671875 C-57.74194099 133.07398979 -57.74194099 133.07398979 -57.06022644 131.47969055 C-51.68155992 118.90758618 -46.25654641 106.35550737 -40.83309937 93.80267334 C-35.65100127 81.80689256 -30.48270265 69.8053864 -25.34687614 57.78972054 C-24.52634942 55.8700937 -23.70553987 53.95058801 -22.88465881 52.03111267 C-20.26327264 45.90091503 -17.64450261 39.76962503 -15.0300293 33.63647461 C-14.07350599 31.39823156 -13.11688635 29.16002967 -12.16015625 26.921875 C-11.53172318 25.44361992 -11.53172318 25.44361992 -10.89059448 23.9355011 C-7.43405331 15.86042805 -3.72114682 7.97388603 0 0 Z M24 68 C18.66268038 80.22335347 13.33176782 92.44948129 8.0098877 104.67956543 C7.11087941 106.74523066 6.21127486 108.81063496 5.31152344 110.87597656 C4.01610451 113.85307524 2.72543127 116.83215639 1.4375 119.8125 C1.07470947 120.64483154 0.71191895 121.47716309 0.33813477 122.3347168 C-1.38694772 126.03265532 -1.38694772 126.03265532 -2 130 C15.49 130 32.98 130 51 130 C46.86638264 119.21630159 46.86638264 119.21630159 42.44140625 108.56640625 C41.97395241 107.47851051 41.97395241 107.47851051 41.49705505 106.36863708 C40.52118742 104.0989187 39.54195469 101.83067238 38.5625 99.5625 C37.91318051 98.05413586 37.26409107 96.54567266 36.61523438 95.03710938 C35.35158415 92.09992143 34.08671218 89.16326484 32.82080078 86.22705078 C30.20406332 80.15557 27.60170762 74.07793371 25 68 C24.67 68 24.34 68 24 68 Z " fill="#00CCFF" transform="translate(1767,1223)"/>
<path d="M0 0 C16.17 0 32.34 0 49 0 C57.73347833 19.69313741 66.35893538 39.42244587 74.82519531 59.23144531 C75.60087526 61.04623943 76.37659188 62.86101787 77.15234375 64.67578125 C77.54330231 65.59040131 77.93426086 66.50502136 78.33706665 67.44735718 C83.07251181 78.51829898 87.85043689 89.57088876 92.625 100.625 C101.08438421 120.21364511 109.50268055 139.81963349 117.89898682 159.43539429 C122.93737724 171.2059497 127.97940314 182.97470018 133.0703125 194.72265625 C133.4550473 195.6106189 133.8397821 196.49858154 134.23617554 197.41345215 C135.99860429 201.4792943 137.76373839 205.54393608 139.53271484 209.60693359 C140.13641081 210.99706268 140.74009036 212.38719889 141.34375 213.77734375 C141.86130859 214.96577881 142.37886719 216.15421387 142.91210938 217.37866211 C144 220 144 220 144 221 C126.18 221 108.36 221 90 221 C87.999375 216.565625 85.99875 212.13125 83.9375 207.5625 C83.32253662 206.20326416 82.70757324 204.84402832 82.07397461 203.44360352 C77.84064845 194.02871286 73.93603914 184.5589522 70 175 C24.46 174.505 24.46 174.505 -22 174 C-22.99 176.97 -23.98 179.94 -25 183 C-25.5799426 184.51242442 -26.17736168 186.01857357 -26.80932617 187.51000977 C-27.29604797 188.66563416 -27.29604797 188.66563416 -27.79260254 189.84460449 C-28.12272339 190.61904907 -28.45284424 191.39349365 -28.79296875 192.19140625 C-29.26023376 193.29832825 -29.26023376 193.29832825 -29.73693848 194.4276123 C-30.88341766 197.14081136 -32.03578898 199.85151764 -33.1875 202.5625 C-37.0546875 211.6890625 -37.0546875 211.6890625 -41 221 C-58.82 221 -76.64 221 -95 221 C-93.03071142 215.09213425 -91.03808073 209.51740572 -88.5078125 203.875 C-88.00128647 202.73069016 -88.00128647 202.73069016 -87.48452759 201.56326294 C-86.75265189 199.91013236 -86.01910755 198.2577397 -85.28405762 196.60601807 C-83.24926676 192.03100674 -81.22998351 187.44916454 -79.2109375 182.8671875 C-78.78502319 181.90094452 -78.35910889 180.93470154 -77.92028809 179.93917847 C-73.12141342 169.03345167 -68.43216034 158.08122234 -63.75 147.125 C-61.97027457 142.96214443 -60.19031161 138.79939049 -58.41015625 134.63671875 C-57.74194099 133.07398979 -57.74194099 133.07398979 -57.06022644 131.47969055 C-51.68155992 118.90758618 -46.25654641 106.35550737 -40.83309937 93.80267334 C-35.65100127 81.80689256 -30.48270265 69.8053864 -25.34687614 57.78972054 C-24.52634942 55.8700937 -23.70553987 53.95058801 -22.88465881 52.03111267 C-20.26327264 45.90091503 -17.64450261 39.76962503 -15.0300293 33.63647461 C-14.07350599 31.39823156 -13.11688635 29.16002967 -12.16015625 26.921875 C-11.53172318 25.44361992 -11.53172318 25.44361992 -10.89059448 23.9355011 C-7.43405331 15.86042805 -3.72114682 7.97388603 0 0 Z M24 68 C18.66268038 80.22335347 13.33176782 92.44948129 8.0098877 104.67956543 C7.11087941 106.74523066 6.21127486 108.81063496 5.31152344 110.87597656 C4.01610451 113.85307524 2.72543127 116.83215639 1.4375 119.8125 C1.07470947 120.64483154 0.71191895 121.47716309 0.33813477 122.3347168 C-1.38694772 126.03265532 -1.38694772 126.03265532 -2 130 C15.49 130 32.98 130 51 130 C46.86638264 119.21630159 46.86638264 119.21630159 42.44140625 108.56640625 C41.97395241 107.47851051 41.97395241 107.47851051 41.49705505 106.36863708 C40.52118742 104.0989187 39.54195469 101.83067238 38.5625 99.5625 C37.91318051 98.05413586 37.26409107 96.54567266 36.61523438 95.03710938 C35.35158415 92.09992143 34.08671218 89.16326484 32.82080078 86.22705078 C30.20406332 80.15557 27.60170762 74.07793371 25 68 C24.67 68 24.34 68 24 68 Z " fill="#00CCFF" transform="translate(1039,1223)"/>
<path d="M0 0 C16.83 0 33.66 0 51 0 C51.0093457 3.97023193 51.01869141 7.94046387 51.02832031 12.03100586 C51.06219825 25.19859515 51.11760933 38.36602162 51.18390274 51.53348446 C51.22354869 59.51117688 51.25601394 67.48877271 51.27099609 75.46655273 C51.28408814 82.42783979 51.31124259 89.38891304 51.35461307 96.3500796 C51.37706003 100.02889401 51.39292092 103.70744641 51.39188385 107.38633537 C51.39246437 128.85802817 51.85541915 146.9280513 64.1875 165.25 C73.02812611 173.89416776 83.11836226 177.96609086 95.375 178.4375 C107.17882306 178.11468439 116.48142084 174.34092396 124.86328125 166.1875 C137.58743761 152.6731926 139.11943498 134.86901889 139.20532227 117.15820312 C139.21522186 115.88907074 139.22512146 114.61993835 139.23532104 113.31234741 C139.26218942 109.85427339 139.28329593 106.39618598 139.30332303 102.93806648 C139.32529501 99.31590503 139.35262848 95.69378401 139.37937927 92.07165527 C139.42915539 85.22249582 139.47414972 78.37331374 139.51740164 71.52411032 C139.56690348 63.72235368 139.6217733 55.92063763 139.67708123 48.11892033 C139.79066956 32.0793164 139.8968499 16.03967497 140 0 C156.5 0 173 0 190 0 C190.06800469 17.66482814 190.12314799 35.32954266 190.15543652 52.99446583 C190.17083433 61.19858841 190.19178634 69.40262324 190.22631836 77.60668945 C190.25643984 84.7663839 190.27562632 91.92601472 190.28226548 99.08577079 C190.2861397 102.86862464 190.29509203 106.65129664 190.31719017 110.43409157 C190.50516299 143.952892 187.4628618 173.44361024 163.4375 199 C147.22952894 214.7911246 124.46738348 223.23783212 102 224 C101.02289063 224.03996094 100.04578125 224.07992188 99.0390625 224.12109375 C73.30453476 224.66120112 48.17814344 217.77560831 29 200 C27.79923828 198.91912109 27.79923828 198.91912109 26.57421875 197.81640625 C20.92332803 192.48842357 16.82514955 186.73779355 13 180 C12.47535156 179.10925781 11.95070313 178.21851563 11.41015625 177.30078125 C4.87791261 165.38317644 2.00496659 152.17557451 0.87158203 138.72631836 C0.78834749 137.74370749 0.70511295 136.76109663 0.61935616 135.74870968 C-0.33483544 123.25331518 -0.25685981 110.74892053 -0.20278788 98.22487378 C-0.19003195 94.75498123 -0.18909093 91.28508267 -0.18673706 87.81517029 C-0.18059357 81.28519873 -0.16428263 74.75529651 -0.14403808 68.22535509 C-0.12145285 60.77394554 -0.11062961 53.32253215 -0.10064721 45.87109673 C-0.07990737 30.5806845 -0.04332399 15.29036746 0 0 Z " fill="#00CCFF" transform="translate(260,1223)"/>
<path d="M0 0 C16.5 0 33 0 50 0 C50 58.41 50 116.82 50 177 C81.02 177 112.04 177 144 177 C144 191.52 144 206.04 144 221 C96.48 221 48.96 221 0 221 C0 148.07 0 75.14 0 0 Z " fill="#00CCFF" transform="translate(501,1223)"/>
<path d="M0 0 C16.5 0 33 0 50 0 C50 58.41 50 116.82 50 177 C81.02 177 112.04 177 144 177 C144 191.52 144 206.04 144 221 C96.48 221 48.96 221 0 221 C0 148.07 0 75.14 0 0 Z " fill="#00CCFF" transform="translate(90,1223)"/>
<path d="M0 0 C7.46793491 0.54445227 14.37923131 2.27312812 21.58584595 4.26599121 C24.26883633 5.00778911 26.95581019 5.73462862 29.6426239 6.46243286 C30.96616048 6.82112127 32.28949726 7.1805478 33.61262512 7.54074097 C42.06789223 9.84143403 50.55896418 11.9793642 59.09765625 13.94921875 C66.94611781 15.760749 74.7153174 17.7192064 82.46264648 19.92456055 C91.15611632 22.37236307 99.92682571 24.51369288 108.69458008 26.67700195 C109.85626709 26.96406006 111.0179541 27.25111816 112.21484375 27.546875 C113.25761475 27.80307617 114.30038574 28.05927734 115.37475586 28.32324219 C117.26942297 28.81166563 119.1437972 29.38126573 121 30 C121 94.02 121 158.04 121 224 C118.22850808 220.5356351 116.33677595 218.05088862 114.40625 214.25390625 C113.94001221 213.34648682 113.47377441 212.43906738 112.9934082 211.50415039 C112.5005835 210.53340576 112.00775879 209.56266113 111.5 208.5625 C107.52835604 200.843266 103.49743004 193.16826777 99.3125 185.5625 C94.31300848 176.45983349 89.42415801 167.30170406 84.5625 158.125 C79.02692789 147.67839361 73.45286567 137.25500133 67.80834961 126.86669922 C63.72124166 119.34165325 59.66606831 111.79985969 55.625 104.25 C55.31223114 103.66571228 54.99946228 103.08142456 54.67721558 102.47943115 C53.08830268 99.51090548 51.49982182 96.54214893 49.91162109 93.57324219 C41.9364938 78.66510211 33.95443654 63.76070757 25.9375 48.875 C25.3703125 47.8216748 24.803125 46.76834961 24.21875 45.68310547 C21.53208354 40.69521759 18.84325113 35.70851927 16.14915466 30.72463989 C15.19407629 28.95748046 14.23963837 27.18997664 13.28540039 25.42236328 C12.09316555 23.21431095 10.89973164 21.00690544 9.70483398 18.80029297 C6.35257261 12.58893992 3.11235685 6.33508717 0 0 Z " fill="#00B5E2" transform="translate(881,729)"/>
</svg>
